<?xml version="1.0" encoding="utf-8"?>
<!-- Generator: Adobe Illustrator 19.0.0, SVG Export Plug-In . SVG Version: 6.00 Build 0)  -->
<svg version="1.1" id="Layer_1" xmlns="http://www.w3.org/2000/svg" xmlns:xlink="http://www.w3.org/1999/xlink" x="0px" y="0px"
	 viewBox="0 0 400 400" style="enable-background:new 0 0 400 400;" xml:space="preserve">
<style type="text/css">
	.st0{fill:#DF3735;}
	.st1{font-family:'NexaLight';}
	.st2{font-size:97.1804px;}
	.st3{fill:#2B0908;}
	.st4{fill:#FF0F00;}
</style>
<g id="XMLID_1_">
	<g id="XMLID_17_">
		<path id="XMLID_19_" class="st0" d="M386.5,162.3c0,0-4.2-2.5-13.4-2l0,0c-5.6-24.1-25-46.6-57.2-48.4l0-18.4h-83.9l0,19.5h-40.4
			V95.6h-8.3V10.8V0l-52.8,93.4l-7.9,0.2l-4.2,6.5l-2.8-6.6h-9.2L53.6,0v10.8l0,82.7h-6.1V238l68.4-1.1h5h70.6l61.8,6.9
			c0,0,35.7-32.3,56.8-26.3c16.1,4.6,29,4,39.1-0.1l0,0v9.2c0,0,6.1,2.2,11.9-10.2h4.4v-5.3h7.2l-1.1-13.6L386.5,162.3z"/>
		<text id="XMLID_18_" transform="matrix(1 0 0 1 78.7656 200.9116)" class="st1 st2">Movie</text>
	</g>
	<g id="XMLID_4_">
		<path id="XMLID_12_" class="st3" d="M226.7,217.2h-77v17.7l-10.5,1.9l-16.3-11.1l-24.7-42.4l0,35.2
			c-56.4-11.1-72.9,51.5-61.5,72.9l-16.1,27.1c46,46,71.2,38,71.2,38v19.4h5.8V400l15.5-24.4h55.1v-20.2l6.9-4.2
			c14.1,11.5,32.5,0.5,33.8,1.4c11.1,7.2,28.8,1.4,28.8,1.4c11.4,5.3,24.4,0.6,24.4,0.6c8.9,5,27.4,0.8,27.4,0.8h93.4v-75.6
			c0-28-33.5-41.6-33.5-41.6v-22.4h-74.8v-3l-21.1,28c-2.5-0.8-13.6-4.7-13.6-4.7l-12.5-0.8L226.7,217.2z"/>
		<g id="XMLID_5_">
			<text id="XMLID_26_" transform="matrix(1 0 0 1 62.1449 322.2411)" class="st4 st1 st2">Stash</text>
		</g>
	</g>
</g>
</svg>
